<?xml version="1.0" encoding="UTF-8"?>
<!DOCTYPE svg PUBLIC "-//W3C//DTD SVG 1.1//EN" "http://www.w3.org/Graphics/SVG/1.1/DTD/svg11.dtd">
<svg width="104mm" height="97mm" viewBox="0 0 10400 9700" version="1.1" xmlns="http://www.w3.org/2000/svg" stroke-width="28.222" stroke-linejoin="round" xml:space="preserve">
 <path fill="none" stroke="rgb(217,217,217)" stroke-width="26" stroke-linejoin="round" d="M 5212,9645 L 13,9645 13,13 10410,13 10410,9645 5212,9645 Z"/>
 <path fill="none" stroke="rgb(217,217,217)" stroke-width="26" stroke-linejoin="round" d="M 904,1479 L 904,8127"/>
 <path fill="none" stroke="rgb(217,217,217)" stroke-width="26" stroke-linejoin="round" d="M 1802,1479 L 1802,8127"/>
 <path fill="none" stroke="rgb(217,217,217)" stroke-width="26" stroke-linejoin="round" d="M 2701,1479 L 2701,8127"/>
 <path fill="none" stroke="rgb(217,217,217)" stroke-width="26" stroke-linejoin="round" d="M 3600,1479 L 3600,8127"/>
 <path fill="none" stroke="rgb(217,217,217)" stroke-width="26" stroke-linejoin="round" d="M 4498,1479 L 4498,8127"/>
 <path fill="none" stroke="rgb(217,217,217)" stroke-width="26" stroke-linejoin="round" d="M 5397,1479 L 5397,8127"/>
 <path fill="none" stroke="rgb(217,217,217)" stroke-width="26" stroke-linejoin="round" d="M 6296,1479 L 6296,8127"/>
 <path fill="none" stroke="rgb(217,217,217)" stroke-width="26" stroke-linejoin="round" d="M 7194,1479 L 7194,8127"/>
 <path fill="none" stroke="rgb(217,217,217)" stroke-width="26" stroke-linejoin="round" d="M 8093,1479 L 8093,8127"/>
 <path fill="none" stroke="rgb(217,217,217)" stroke-width="26" stroke-linejoin="round" d="M 8992,1479 L 8992,8127"/>
 <path fill="none" stroke="rgb(217,217,217)" stroke-width="26" stroke-linejoin="round" d="M 9890,1479 L 9890,8127"/>
 <path fill="none" stroke="rgb(217,217,217)" stroke-width="26" stroke-linejoin="round" d="M 9890,8127 L 904,8127"/>
 <path fill="none" stroke="rgb(217,217,217)" stroke-width="26" stroke-linejoin="round" d="M 9890,7018 L 904,7018"/>
 <path fill="none" stroke="rgb(217,217,217)" stroke-width="26" stroke-linejoin="round" d="M 9890,5910 L 904,5910"/>
 <path fill="none" stroke="rgb(217,217,217)" stroke-width="26" stroke-linejoin="round" d="M 9890,4803 L 904,4803"/>
 <path fill="none" stroke="rgb(217,217,217)" stroke-width="26" stroke-linejoin="round" d="M 9890,3695 L 904,3695"/>
 <path fill="none" stroke="rgb(217,217,217)" stroke-width="26" stroke-linejoin="round" d="M 9890,2587 L 904,2587"/>
 <path fill="none" stroke="rgb(217,217,217)" stroke-width="26" stroke-linejoin="round" d="M 9890,1479 L 904,1479"/>
 <path fill="none" stroke="rgb(0,0,0)" stroke-width="26" stroke-linejoin="round" d="M 904,5910 L 9890,5910"/>
 <path fill="none" stroke="rgb(0,0,0)" stroke-width="26" stroke-linejoin="round" d="M 904,8127 L 904,1479"/>
 <path fill="none" stroke="rgb(119,44,42)" stroke-width="53" stroke-linejoin="round" d="M 904,5910 L 913,5921 922,5931 931,5942 940,5953 949,5963 958,5974 966,5984 975,5995 984,6005 993,6016 1002,6026 1011,6036 1020,6047 1029,6057 1038,6067 1047,6077 1056,6087 1065,6097 1074,6107 1083,6116 1092,6126 1101,6135 1110,6145 1119,6154 1128,6163 1137,6172 1146,6181 1155,6190 1164,6199 1173,6208 1182,6216 1191,6225 1200,6233 1209,6242 1218,6250 1227,6258 1236,6265 1245,6273 1254,6281 1263,6289 1272,6297 1281,6305 1290,6312 1299,6320 1308,6328 1317,6335 1326,6342 1335,6350 1344,6357 1352,6364 1361,6371 1370,6378 1379,6385 1388,6392 1397,6399 1406,6406 1415,6412 1424,6419 1433,6425 1442,6432 1451,6438 1460,6444 1469,6451 1478,6457 1487,6463 1496,6469 1505,6474 1514,6480 1523,6486 1532,6492 1541,6497 1550,6503 1559,6508 1568,6514 1577,6519 1586,6524 1595,6529 1604,6534 1613,6539 1622,6544 1631,6549 1640,6554 1649,6559 1658,6563 1667,6568 1676,6572 1685,6577 1694,6581 1703,6585 1712,6590 1721,6594 1730,6598 1738,6602 1747,6606 1756,6610 1765,6614 1774,6617 1783,6620 1792,6624 1802,6627 1811,6631 1820,6634 1829,6637 1838,6641 1847,6644 1856,6647 1865,6650 1874,6653 1883,6656 1892,6659 1901,6662 1910,6665 1919,6667 1928,6670 1937,6673 1946,6675 1955,6678 1964,6680 1973,6682 1982,6685 1991,6687 2000,6689 2009,6691 2018,6693 2027,6695 2036,6697 2045,6699 2054,6701 2063,6703 2072,6704 2081,6706 2090,6708 2099,6709 2108,6711 2117,6712 2125,6713 2134,6715 2143,6716 2152,6717 2161,6718 2170,6719 2179,6720 2188,6721 2197,6722 2206,6723 2215,6724 2224,6725 2233,6725 2242,6726 2251,6727 2260,6727 2269,6728 2278,6728 2287,6729 2296,6729 2305,6729 2314,6730 2323,6730 2332,6730 2341,6730 2350,6730 2359,6730 2368,6730 2377,6730 2386,6730 2395,6730 2404,6730 2413,6729 2422,6729 2431,6729 2440,6728 2449,6728 2458,6728 2467,6727 2476,6726 2485,6726 2494,6725 2503,6725 2511,6724 2520,6723 2529,6722 2538,6721 2547,6721 2556,6720 2565,6719 2574,6718 2583,6717 2592,6716 2601,6715 2610,6713 2619,6712 2628,6711 2637,6710 2646,6708 2655,6707 2664,6706 2673,6704 2682,6703 2691,6701 2701,6700 2710,6698 2719,6697 2728,6695 2737,6694 2746,6692 2755,6690 2764,6689 2773,6687 2782,6685 2791,6683 2800,6681 2809,6679 2818,6678 2827,6676 2836,6674 2845,6672 2854,6670 2863,6668 2872,6666 2881,6663 2890,6661 2898,6659 2907,6657 2916,6655 2925,6652 2934,6650 2943,6648 2952,6646 2961,6643 2970,6641 2979,6639 2988,6636 2997,6634 3006,6631 3015,6629 3024,6626 3033,6624 3042,6621 3051,6619 3060,6617 3069,6615 3078,6612 3087,6609 3096,6607 3105,6604 3114,6601 3123,6599 3132,6596 3141,6593 3150,6590 3159,6587 3168,6585 3177,6582 3186,6579 3195,6576 3204,6573 3213,6570 3222,6568 3231,6565 3240,6562 3249,6559 3258,6556 3267,6553 3276,6550 3284,6547 3293,6544 3302,6541 3311,6538 3320,6535 3329,6532 3338,6529 3347,6525 3356,6522 3365,6519 3374,6516 3383,6513 3392,6510 3401,6507 3410,6504 3419,6500 3428,6497 3437,6494 3446,6491 3455,6488 3464,6484 3473,6481 3482,6478 3491,6475 3500,6472 3509,6468 3518,6465 3527,6462 3536,6459 3545,6455 3554,6452 3563,6449 3572,6446 3581,6442 3590,6439 3600,6436 3609,6432 3618,6429 3627,6426 3636,6422 3645,6419 3654,6416 3663,6413 3671,6409 3680,6406 3689,6403 3698,6399 3707,6396 3716,6393 3725,6389 3734,6386 3743,6383 3752,6379 3761,6376 3770,6373 3779,6369 3788,6366 3797,6363 3806,6359 3815,6356 3824,6353 3833,6349 3842,6346 3851,6343 3860,6339 3869,6336 3878,6333 3887,6330 3896,6326 3905,6323 3914,6320 3923,6316 3932,6313 3941,6310 3950,6307 3959,6303 3968,6300 3977,6297 3986,6293 3995,6290 4004,6287 4013,6284 4022,6281 4031,6277 4040,6274 4049,6271 4057,6268 4066,6264 4075,6261 4084,6259 4093,6256 4102,6253 4111,6250 4120,6246 4129,6243 4138,6240 4147,6237 4156,6234 4165,6231 4174,6228 4183,6224 4192,6221 4201,6218 4210,6215 4219,6212 4228,6209 4237,6206 4246,6203 4255,6200 4264,6197 4273,6194 4282,6191 4291,6188 4300,6185 4309,6182 4318,6179 4327,6176 4336,6173 4345,6170 4354,6167 4363,6164 4372,6162 4381,6159 4390,6156 4399,6153 4408,6150 4417,6147 4426,6145 4435,6142 4443,6139 4452,6136 4461,6133 4470,6131 4479,6128 4488,6125 4498,6122 4507,6120 4516,6117 4525,6114 4534,6112 4543,6109 4552,6106 4561,6104 4570,6101 4579,6099 4588,6096 4597,6094 4606,6091 4615,6088 4624,6086 4633,6083 4642,6081 4651,6079 4660,6076 4669,6074 4678,6071 4687,6069 4696,6066 4705,6064 4714,6062 4723,6059 4732,6057 4741,6055 4750,6052 4759,6050 4768,6048 4777,6046 4786,6043 4795,6041 4804,6039 4813,6037 4822,6035 4830,6032 4839,6030 4848,6028 4857,6026 4866,6024 4875,6022 4884,6020 4893,6018 4902,6016 4911,6014 4920,6012 4929,6010 4938,6008 4947,6006 4956,6004 4965,6002 4974,6000 4983,5999 4992,5997 5001,5995 5010,5993 5019,5991 5028,5990 5037,5988 5046,5986 5055,5984 5064,5983 5073,5981 5082,5979 5091,5978 5100,5976 5109,5974 5118,5973 5127,5971 5136,5970 5145,5968 5154,5967 5163,5965 5172,5964 5181,5962 5190,5961 5199,5959 5208,5958 5216,5957 5225,5955 5234,5954 5243,5953 5252,5951 5261,5950 5270,5949 5279,5948 5288,5946 5297,5945 5306,5944 5315,5943 5324,5942 5333,5941 5342,5939 5351,5938 5360,5937 5369,5936 5378,5935 5387,5934 5397,5933 5406,5932 5415,5931 5424,5930 5433,5930 5442,5929 5451,5928 5460,5927 5469,5926 5478,5925 5487,5924 5496,5924 5505,5923 5514,5922 5523,5922 5532,5921 5541,5920 5550,5920 5559,5919 5568,5918 5577,5918 5586,5917 5595,5917 5603,5916 5612,5916 5621,5915 5630,5915 5639,5914 5648,5914 5657,5913 5666,5913 5675,5913 5684,5912 5693,5912 5702,5912 5711,5911 5720,5911 5729,5911 5738,5911 5747,5910 5756,5910 5765,5910 5774,5910 5783,5910 5792,5910 5801,5910 5810,5909 5819,5909 5828,5909 5837,5909 5846,5909 5855,5909 5864,5910 5873,5910 5882,5910 5891,5910 5900,5910 5909,5910 5918,5910 5927,5911 5936,5911 5945,5911 5954,5911 5963,5912 5972,5912 5981,5912 5989,5912 5998,5913 6007,5913 6016,5914 6025,5914 6034,5914 6043,5915 6052,5915 6061,5916 6070,5916 6079,5917 6088,5918 6097,5918 6106,5919 6115,5919 6124,5920 6133,5921 6142,5921 6151,5922 6160,5923 6169,5924 6178,5924 6187,5925 6196,5926 6205,5927 6214,5928 6223,5928 6232,5929 6241,5930 6250,5931 6259,5932 6268,5933 6277,5934 6286,5935 6296,5936 6305,5937 6314,5938 6323,5939 6332,5940 6341,5941 6350,5943 6359,5944 6368,5945 6376,5946 6385,5947 6394,5949 6403,5950 6412,5951 6421,5952 6430,5954 6439,5955 6448,5956 6457,5958 6466,5959 6475,5961 6484,5962 6493,5964 6502,5965 6511,5966 6520,5968 6529,5970 6538,5971 6547,5973 6556,5974 6565,5976 6574,5977 6583,5979 6592,5981 6601,5982 6610,5984 6619,5986 6628,5988 6637,5989 6646,5991 6655,5993 6664,5995 6673,5997 6682,5999 6691,6000 6700,6002 6709,6004 6718,6006 6727,6008 6736,6010 6745,6012 6754,6014 6762,6016 6771,6018 6780,6020 6789,6022 6798,6024 6807,6026 6816,6029 6825,6031 6834,6033 6843,6035 6852,6037 6861,6040 6870,6042 6879,6044 6888,6046 6897,6049 6906,6051 6915,6053 6924,6056 6933,6058 6942,6060 6951,6063 6960,6065 6969,6068 6978,6070 6987,6073 6996,6075 7005,6078 7014,6080 7023,6083 7032,6085 7041,6088 7050,6091 7059,6093 7068,6096 7077,6099 7086,6101 7095,6104 7104,6107 7113,6109 7122,6112 7131,6115 7140,6118 7148,6120 7157,6123 7166,6126 7175,6129 7184,6132 7194,6135 7203,6138 7212,6141 7221,6144 7230,6147 7239,6149 7248,6152 7257,6156 7266,6159 7275,6162 7284,6165 7293,6168 7302,6171 7311,6174 7320,6177 7329,6180 7338,6183 7347,6187 7356,6190 7365,6193 7374,6196 7383,6199 7392,6203 7401,6206 7410,6209 7419,6213 7428,6216 7437,6219 7446,6223 7455,6226 7464,6229 7473,6233 7482,6236 7491,6240 7500,6243 7509,6247 7518,6250 7527,6254 7535,6257 7544,6260 7553,6263 7562,6267 7571,6271 7580,6274 7589,6278 7598,6281 7607,6285 7616,6289 7625,6292 7634,6296 7643,6300 7652,6304 7661,6307 7670,6311 7679,6315 7688,6319 7697,6323 7706,6326 7715,6330 7724,6334 7733,6338 7742,6342 7751,6346 7760,6350 7769,6354 7778,6358 7787,6362 7796,6366 7805,6370 7814,6374 7823,6378 7832,6382 7841,6386 7850,6390 7859,6394 7868,6398 7877,6402 7886,6406 7895,6410 7904,6415 7913,6419 7921,6423 7930,6427 7939,6431 7948,6436 7957,6440 7966,6444 7975,6448 7984,6453 7993,6457 8002,6461 8011,6466 8020,6470 8029,6474 8038,6479 8047,6483 8056,6488 8065,6492 8074,6497 8083,6501 8093,6505 8102,6510 8111,6514 8120,6519 8129,6523 8138,6528 8147,6533 8156,6537 8165,6542 8174,6546 8183,6551 8192,6556 8201,6560 8210,6565 8219,6570 8228,6574 8237,6579 8246,6584 8255,6588 8264,6593 8273,6598 8282,6603 8291,6607 8300,6612 8308,6617 8317,6621 8326,6626 8335,6631 8344,6635 8353,6640 8362,6645 8371,6650 8380,6655 8389,6660 8398,6665 8407,6670 8416,6675 8425,6680 8434,6685 8443,6690 8452,6695 8461,6700 8470,6705 8479,6710 8488,6715 8497,6720 8506,6725 8515,6730 8524,6735 8533,6741 8542,6746 8551,6751 8560,6756 8569,6761 8578,6766 8587,6772 8596,6777 8605,6782 8614,6787 8623,6793 8632,6798 8641,6803 8650,6808 8659,6814 8668,6819 8677,6824 8686,6830 8694,6835 8703,6841 8712,6846 8721,6851 8730,6857 8739,6862 8748,6868 8757,6873 8766,6879 8775,6884 8784,6889 8793,6895 8802,6901 8811,6906 8820,6912 8829,6917 8838,6923 8847,6928 8856,6934 8865,6939 8874,6945 8883,6951 8892,6956 8901,6962 8910,6968 8919,6973 8928,6978 8937,6984 8946,6989 8955,6995 8964,7001 8973,7006 8982,7012 8992,7018 9001,7024 9010,7029 9019,7035 9028,7041 9037,7047 9046,7053 9055,7059 9064,7064 9072,7070 9081,7076 9090,7082 9099,7088 9108,7094 9117,7100 9126,7106 9135,7112 9144,7117 9153,7123 9162,7129 9171,7135 9180,7141 9189,7147 9198,7153 9207,7159 9216,7165 9225,7171 9234,7178 9243,7184 9252,7190 9261,7196 9270,7202 9279,7208 9288,7214 9297,7220 9306,7226 9315,7232 9324,7239 9333,7245 9342,7251 9351,7257 9360,7263 9369,7270 9378,7276 9387,7282 9396,7288 9405,7295 9414,7301 9423,7307 9432,7313 9441,7320 9450,7326 9458,7332 9467,7338 9476,7344 9485,7350 9494,7357 9503,7363 9512,7369 9521,7376 9530,7382 9539,7389 9548,7395 9557,7401 9566,7408 9575,7414 9584,7421 9593,7427 9602,7434 9611,7440 9620,7447 9629,7453 9638,7460 9647,7466 9656,7473 9665,7479 9674,7486 9683,7492 9692,7499 9701,7505 9710,7512 9719,7519 9728,7525 9737,7532 9746,7538 9755,7545 9764,7552 9773,7558 9782,7565 9791,7572 9800,7578 9809,7585 9818,7592 9827,7599 9836,7605 9844,7612 9853,7619 9862,7625 9871,7632 9880,7639 9890,7646"/>
 <path fill="rgb(192,0,0)" stroke="none" d="M 5844,5910 L 5844,5906 5844,5902 5843,5900 5843,5896 5842,5892 5841,5888 5840,5885 5839,5881 5837,5877 5836,5874 5834,5871 5832,5867 5830,5864 5828,5861 5826,5858 5823,5855 5821,5852 5818,5849 5815,5846 5812,5844 5809,5841 5806,5839 5803,5837 5800,5835 5797,5833 5793,5831 5790,5830 5786,5828 5782,5827 5779,5826 5775,5825 5771,5825 5767,5824 5764,5824 5760,5823 5756,5823 5752,5823 5748,5824 5744,5824 5741,5825 5737,5825 5733,5826 5729,5827 5726,5828 5722,5830 5719,5831 5715,5833 5712,5835 5709,5837 5705,5839 5702,5841 5699,5844 5696,5846 5694,5849 5691,5852 5688,5855 5686,5858 5684,5861 5682,5864 5680,5867 5678,5871 5676,5874 5675,5877 5673,5881 5672,5885 5671,5888 5670,5892 5669,5896 5669,5900 5668,5902 5668,5906 5668,5910 5668,5914 5668,5918 5669,5922 5669,5925 5670,5929 5671,5933 5672,5937 5673,5940 5675,5944 5676,5947 5678,5951 5680,5954 5682,5957 5684,5961 5686,5964 5688,5967 5691,5970 5694,5972 5696,5975 5699,5978 5702,5980 5705,5982 5709,5984 5712,5986 5715,5988 5719,5990 5722,5991 5726,5993 5729,5994 5733,5995 5737,5996 5741,5997 5744,5997 5748,5998 5752,5998 5756,5998 5760,5998 5764,5998 5767,5997 5771,5997 5775,5996 5779,5995 5782,5994 5786,5993 5790,5991 5793,5990 5797,5988 5800,5986 5803,5984 5806,5982 5809,5980 5812,5978 5815,5975 5818,5972 5821,5970 5823,5967 5826,5964 5828,5961 5830,5957 5832,5954 5834,5951 5836,5947 5837,5944 5839,5940 5840,5937 5841,5933 5842,5929 5843,5925 5843,5922 5844,5918 5844,5914 5844,5910 Z"/>
 <path fill="none" stroke="rgb(192,0,0)" stroke-linejoin="round" d="M 5844,5910 L 5844,5906 5844,5902 5843,5900 5843,5896 5842,5892 5841,5888 5840,5885 5839,5881 5837,5877 5836,5874 5834,5871 5832,5867 5830,5864 5828,5861 5826,5858 5823,5855 5821,5852 5818,5849 5815,5846 5812,5844 5809,5841 5806,5839 5803,5837 5800,5835 5797,5833 5793,5831 5790,5830 5786,5828 5782,5827 5779,5826 5775,5825 5771,5825 5767,5824 5764,5824 5760,5823 5756,5823 5752,5823 5748,5824 5744,5824 5741,5825 5737,5825 5733,5826 5729,5827 5726,5828 5722,5830 5719,5831 5715,5833 5712,5835 5709,5837 5705,5839 5702,5841 5699,5844 5696,5846 5694,5849 5691,5852 5688,5855 5686,5858 5684,5861 5682,5864 5680,5867 5678,5871 5676,5874 5675,5877 5673,5881 5672,5885 5671,5888 5670,5892 5669,5896 5669,5900 5668,5902 5668,5906 5668,5910 5668,5914 5668,5918 5669,5922 5669,5925 5670,5929 5671,5933 5672,5937 5673,5940 5675,5944 5676,5947 5678,5951 5680,5954 5682,5957 5684,5961 5686,5964 5688,5967 5691,5970 5694,5972 5696,5975 5699,5978 5702,5980 5705,5982 5709,5984 5712,5986 5715,5988 5719,5990 5722,5991 5726,5993 5729,5994 5733,5995 5737,5996 5741,5997 5744,5997 5748,5998 5752,5998 5756,5998 5760,5998 5764,5998 5767,5997 5771,5997 5775,5996 5779,5995 5782,5994 5786,5993 5790,5991 5793,5990 5797,5988 5800,5986 5803,5984 5806,5982 5809,5980 5812,5978 5815,5975 5818,5972 5821,5970 5823,5967 5826,5964 5828,5961 5830,5957 5832,5954 5834,5951 5836,5947 5837,5944 5839,5940 5840,5937 5841,5933 5842,5929 5843,5925 5843,5922 5844,5918 5844,5914 5844,5910 Z"/>
 <path fill="none" stroke="rgb(44,77,117)" stroke-width="53" stroke-linejoin="round" d="M 904,5910 L 913,5920 922,5931 931,5941 940,5951 949,5961 958,5971 966,5981 975,5991 984,6001 993,6011 1002,6020 1011,6030 1020,6039 1029,6049 1038,6058 1047,6067 1056,6076 1065,6084 1074,6093 1083,6101 1092,6110 1101,6117 1110,6125 1119,6133 1128,6140 1137,6147 1146,6154 1155,6161 1164,6168 1173,6175 1182,6181 1191,6187 1200,6193 1209,6199 1218,6205 1227,6210 1236,6216 1245,6221 1254,6226 1263,6231 1272,6236 1281,6241 1290,6245 1299,6250 1308,6254 1317,6258 1326,6261 1335,6265 1344,6269 1352,6272 1361,6276 1370,6279 1379,6282 1388,6286 1397,6288 1406,6291 1415,6294 1424,6296 1433,6299 1442,6301 1451,6303 1460,6305 1469,6307 1478,6308 1487,6310 1496,6311 1505,6312 1514,6313 1523,6314 1532,6315 1541,6316 1550,6316 1559,6317 1568,6317 1577,6317 1586,6317 1595,6317 1604,6317 1613,6316 1622,6316 1631,6315 1640,6314 1649,6313 1658,6312 1667,6311 1676,6310 1685,6309 1694,6307 1703,6305 1712,6304 1721,6302 1730,6300 1738,6298 1747,6295 1756,6293 1765,6291 1774,6288 1783,6285 1792,6282 1802,6280 1811,6277 1820,6273 1829,6270 1838,6267 1847,6263 1856,6260 1865,6257 1874,6253 1883,6249 1892,6245 1901,6241 1910,6237 1919,6232 1928,6228 1937,6223 1946,6218 1955,6214 1964,6209 1973,6204 1982,6199 1991,6194 2000,6188 2009,6183 2018,6177 2027,6172 2036,6166 2045,6160 2054,6155 2063,6149 2072,6143 2081,6136 2090,6130 2099,6124 2108,6118 2117,6111 2125,6104 2134,6098 2143,6091 2152,6084 2161,6077 2170,6070 2179,6063 2188,6056 2197,6049 2206,6042 2215,6034 2224,6027 2233,6019 2242,6012 2251,6004 2260,5996 2269,5988 2278,5980 2287,5972 2296,5964 2305,5956 2314,5948 2323,5940 2332,5931 2341,5923 2350,5914 2359,5906 2368,5898 2377,5889 2386,5881 2395,5872 2404,5863 2413,5854 2422,5845 2431,5836 2440,5827 2449,5818 2458,5809 2467,5799 2476,5790 2485,5781 2494,5771 2503,5762 2511,5752 2520,5742 2529,5733 2538,5723 2547,5713 2556,5704 2565,5694 2574,5684 2583,5674 2592,5664 2601,5654 2610,5644 2619,5634 2628,5624 2637,5613 2646,5603 2655,5593 2664,5582 2673,5572 2682,5562 2691,5551 2701,5542 2710,5531 2719,5521 2728,5510 2737,5500 2746,5489 2755,5478 2764,5467 2773,5457 2782,5446 2791,5435 2800,5424 2809,5413 2818,5403 2827,5392 2836,5381 2845,5370 2854,5359 2863,5348 2872,5337 2881,5326 2890,5315 2898,5303 2907,5292 2916,5281 2925,5270 2934,5259 2943,5248 2952,5236 2961,5225 2970,5214 2979,5203 2988,5191 2997,5181 3006,5170 3015,5158 3024,5147 3033,5136 3042,5124 3051,5113 3060,5102 3069,5090 3078,5079 3087,5067 3096,5056 3105,5044 3114,5033 3123,5022 3132,5010 3141,4999 3150,4987 3159,4976 3168,4964 3177,4953 3186,4941 3195,4930 3204,4918 3213,4907 3222,4895 3231,4884 3240,4872 3249,4861 3258,4849 3267,4838 3276,4828 3284,4816 3293,4805 3302,4793 3311,4782 3320,4770 3329,4759 3338,4747 3347,4736 3356,4724 3365,4713 3374,4702 3383,4690 3392,4679 3401,4667 3410,4656 3419,4645 3428,4633 3437,4622 3446,4611 3455,4599 3464,4588 3473,4577 3482,4565 3491,4554 3500,4543 3509,4532 3518,4520 3527,4509 3536,4498 3545,4487 3554,4475 3563,4465 3572,4454 3581,4443 3590,4432 3600,4421 3609,4410 3618,4399 3627,4388 3636,4377 3645,4366 3654,4355 3663,4344 3671,4333 3680,4322 3689,4311 3698,4300 3707,4289 3716,4278 3725,4268 3734,4257 3743,4246 3752,4235 3761,4225 3770,4214 3779,4203 3788,4192 3797,4182 3806,4171 3815,4161 3824,4150 3833,4140 3842,4129 3851,4119 3860,4109 3869,4099 3878,4088 3887,4078 3896,4068 3905,4057 3914,4047 3923,4037 3932,4027 3941,4016 3950,4006 3959,3996 3968,3986 3977,3976 3986,3966 3995,3956 4004,3946 4013,3936 4022,3926 4031,3916 4040,3906 4049,3896 4057,3886 4066,3877 4075,3867 4084,3857 4093,3848 4102,3838 4111,3828 4120,3819 4129,3809 4138,3800 4147,3790 4156,3781 4165,3771 4174,3762 4183,3753 4192,3744 4201,3735 4210,3726 4219,3716 4228,3707 4237,3698 4246,3689 4255,3680 4264,3671 4273,3662 4282,3653 4291,3644 4300,3635 4309,3626 4318,3617 4327,3608 4336,3600 4345,3591 4354,3582 4363,3573 4372,3565 4381,3556 4390,3548 4399,3539 4408,3531 4417,3522 4426,3514 4435,3505 4443,3497 4452,3489 4461,3481 4470,3472 4479,3464 4488,3456 4498,3448 4507,3440 4516,3432 4525,3424 4534,3416 4543,3408 4552,3400 4561,3393 4570,3385 4579,3378 4588,3370 4597,3362 4606,3354 4615,3347 4624,3339 4633,3332 4642,3324 4651,3317 4660,3309 4669,3302 4678,3295 4687,3287 4696,3280 4705,3273 4714,3266 4723,3258 4732,3251 4741,3244 4750,3237 4759,3230 4768,3223 4777,3216 4786,3209 4795,3202 4804,3196 4813,3189 4822,3182 4830,3175 4839,3169 4848,3162 4857,3156 4866,3149 4875,3143 4884,3136 4893,3130 4902,3123 4911,3117 4920,3111 4929,3104 4938,3098 4947,3092 4956,3086 4965,3080 4974,3074 4983,3068 4992,3062 5001,3056 5010,3050 5019,3044 5028,3039 5037,3033 5046,3027 5055,3022 5064,3016 5073,3010 5082,3005 5091,2999 5100,2994 5109,2988 5118,2983 5127,2977 5136,2972 5145,2967 5154,2961 5163,2956 5172,2951 5181,2946 5190,2940 5199,2935 5208,2930 5216,2925 5225,2920 5234,2915 5243,2910 5252,2905 5261,2901 5270,2896 5279,2891 5288,2886 5297,2882 5306,2877 5315,2872 5324,2868 5333,2863 5342,2859 5351,2854 5360,2850 5369,2846 5378,2841 5387,2837 5397,2833 5406,2828 5415,2824 5424,2820 5433,2816 5442,2812 5451,2808 5460,2804 5469,2800 5478,2796 5487,2792 5496,2788 5505,2784 5514,2780 5523,2777 5532,2773 5541,2769 5550,2766 5559,2762 5568,2759 5577,2755 5586,2751 5595,2748 5603,2745 5612,2741 5621,2738 5630,2735 5639,2731 5648,2728 5657,2725 5666,2722 5675,2719 5684,2715 5693,2712 5702,2709 5711,2706 5720,2703 5729,2701 5738,2698 5747,2695 5756,2692 5765,2689 5774,2686 5783,2684 5792,2682 5801,2679 5810,2677 5819,2674 5828,2672 5837,2669 5846,2667 5855,2664 5864,2662 5873,2660 5882,2657 5891,2655 5900,2653 5909,2651 5918,2648 5927,2646 5936,2644 5945,2642 5954,2640 5963,2638 5972,2636 5981,2634 5989,2632 5998,2630 6007,2628 6016,2627 6025,2625 6034,2623 6043,2621 6052,2620 6061,2618 6070,2616 6079,2615 6088,2613 6097,2612 6106,2610 6115,2609 6124,2607 6133,2606 6142,2605 6151,2603 6160,2602 6169,2601 6178,2600 6187,2598 6196,2597 6205,2596 6214,2595 6223,2594 6232,2593 6241,2592 6250,2591 6259,2590 6268,2589 6277,2588 6286,2587 6296,2587 6305,2586 6314,2585 6323,2584 6332,2584 6341,2583 6350,2582 6359,2582 6368,2581 6376,2581 6385,2580 6394,2580 6403,2579 6412,2579 6421,2579 6430,2578 6439,2578 6448,2578 6457,2577 6466,2577 6475,2577 6484,2577 6493,2577 6502,2577 6511,2576 6520,2576 6529,2576 6538,2576 6547,2576 6556,2576 6565,2577 6574,2577 6583,2577 6592,2577 6601,2577 6610,2577 6619,2578 6628,2578 6637,2578 6646,2579 6655,2579 6664,2579 6673,2580 6682,2580 6691,2581 6700,2581 6709,2582 6718,2583 6727,2583 6736,2584 6745,2584 6754,2585 6762,2586 6771,2587 6780,2587 6789,2588 6798,2589 6807,2590 6816,2591 6825,2592 6834,2593 6843,2593 6852,2594 6861,2595 6870,2597 6879,2598 6888,2599 6897,2600 6906,2601 6915,2602 6924,2603 6933,2605 6942,2606 6951,2607 6960,2608 6969,2610 6978,2611 6987,2612 6996,2614 7005,2615 7014,2617 7023,2618 7032,2620 7041,2621 7050,2623 7059,2624 7068,2626 7077,2628 7086,2629 7095,2631 7104,2633 7113,2634 7122,2636 7131,2638 7140,2640 7148,2642 7157,2643 7166,2645 7175,2647 7184,2649 7194,2651 7203,2653 7212,2655 7221,2657 7230,2659 7239,2661 7248,2663 7257,2665 7266,2668 7275,2670 7284,2672 7293,2674 7302,2676 7311,2679 7320,2681 7329,2683 7338,2685 7347,2687 7356,2689 7365,2692 7374,2694 7383,2697 7392,2699 7401,2701 7410,2704 7419,2706 7428,2709 7437,2712 7446,2714 7455,2717 7464,2719 7473,2722 7482,2725 7491,2728 7500,2730 7509,2733 7518,2736 7527,2739 7535,2741 7544,2744 7553,2747 7562,2750 7571,2753 7580,2756 7589,2759 7598,2762 7607,2765 7616,2768 7625,2771 7634,2774 7643,2777 7652,2780 7661,2783 7670,2786 7679,2789 7688,2793 7697,2796 7706,2799 7715,2802 7724,2806 7733,2809 7742,2812 7751,2815 7760,2819 7769,2822 7778,2826 7787,2829 7796,2832 7805,2836 7814,2839 7823,2843 7832,2846 7841,2850 7850,2853 7859,2857 7868,2860 7877,2864 7886,2868 7895,2871 7904,2875 7913,2879 7921,2882 7930,2886 7939,2890 7948,2893 7957,2897 7966,2901 7975,2905 7984,2909 7993,2913 8002,2916 8011,2920 8020,2924 8029,2928 8038,2932 8047,2936 8056,2940 8065,2944 8074,2948 8083,2952 8093,2956 8102,2960 8111,2964 8120,2968 8129,2972 8138,2977 8147,2981 8156,2985 8165,2989 8174,2993 8183,2998 8192,3002 8201,3006 8210,3010 8219,3015 8228,3019 8237,3023 8246,3028 8255,3032 8264,3036 8273,3040 8282,3044 8291,3049 8300,3053 8308,3057 8317,3062 8326,3066 8335,3071 8344,3076 8353,3080 8362,3085 8371,3089 8380,3094 8389,3098 8398,3103 8407,3108 8416,3112 8425,3117 8434,3122 8443,3126 8452,3131 8461,3136 8470,3141 8479,3146 8488,3150 8497,3155 8506,3160 8515,3165 8524,3170 8533,3175 8542,3179 8551,3184 8560,3189 8569,3194 8578,3199 8587,3204 8596,3209 8605,3214 8614,3219 8623,3224 8632,3229 8641,3234 8650,3239 8659,3244 8668,3249 8677,3255 8686,3260 8694,3265 8703,3270 8712,3275 8721,3280 8730,3286 8739,3291 8748,3296 8757,3301 8766,3307 8775,3312 8784,3317 8793,3322 8802,3328 8811,3333 8820,3338 8829,3344 8838,3349 8847,3355 8856,3360 8865,3365 8874,3371 8883,3376 8892,3382 8901,3387 8910,3393 8919,3398 8928,3403 8937,3408 8946,3414 8955,3419 8964,3425 8973,3431 8982,3436 8992,3442 9001,3447 9010,3453 9019,3459 9028,3464 9037,3470 9046,3476 9055,3481 9064,3487 9072,3493 9081,3499 9090,3504 9099,3510 9108,3516 9117,3522 9126,3528 9135,3533 9144,3539 9153,3545 9162,3551 9171,3557 9180,3563 9189,3569 9198,3575 9207,3581 9216,3586 9225,3592 9234,3598 9243,3604 9252,3610 9261,3616 9270,3622 9279,3628 9288,3634 9297,3640 9306,3647 9315,3653 9324,3659 9333,3665 9342,3671 9351,3677 9360,3683 9369,3689 9378,3695 9387,3702 9396,3708 9405,3714 9414,3720 9423,3726 9432,3733 9441,3739 9450,3745 9458,3751 9467,3757 9476,3763 9485,3769 9494,3776 9503,3782 9512,3788 9521,3795 9530,3801 9539,3807 9548,3814 9557,3820 9566,3827 9575,3833 9584,3839 9593,3846 9602,3852 9611,3859 9620,3865 9629,3872 9638,3878 9647,3885 9656,3891 9665,3898 9674,3904 9683,3911 9692,3917 9701,3924 9710,3930 9719,3937 9728,3944 9737,3950 9746,3957 9755,3964 9764,3970 9773,3977 9782,3983 9791,3990 9800,3997 9809,4004 9818,4010 9827,4017 9836,4024 9844,4030 9853,4037 9862,4044 9871,4051 9880,4057 9890,4064"/>
 <path fill="rgb(192,0,0)" stroke="none" d="M 6563,2577 L 6563,2573 6562,2569 6562,2565 6561,2562 6561,2558 6560,2554 6559,2550 6557,2547 6556,2543 6554,2540 6553,2536 6551,2533 6549,2530 6547,2526 6545,2523 6542,2520 6540,2517 6537,2515 6534,2512 6531,2510 6528,2507 6525,2505 6522,2503 6519,2501 6515,2499 6512,2497 6508,2496 6505,2494 6501,2493 6497,2492 6494,2491 6490,2490 6486,2490 6482,2489 6479,2489 6475,2489 6471,2489 6467,2489 6463,2490 6459,2490 6456,2491 6452,2492 6448,2493 6445,2494 6441,2496 6438,2497 6434,2499 6431,2501 6427,2503 6424,2505 6421,2507 6418,2510 6415,2512 6412,2515 6410,2517 6407,2520 6405,2523 6403,2526 6400,2530 6398,2533 6397,2536 6395,2540 6393,2543 6392,2547 6391,2550 6390,2554 6389,2558 6388,2562 6387,2565 6387,2569 6387,2573 6387,2577 6387,2581 6387,2585 6387,2588 6388,2592 6389,2596 6390,2600 6391,2603 6392,2607 6393,2611 6395,2614 6397,2618 6398,2621 6400,2624 6403,2627 6405,2631 6407,2633 6410,2636 6412,2639 6415,2642 6418,2644 6421,2647 6424,2649 6427,2651 6431,2653 6434,2655 6438,2657 6441,2658 6445,2660 6448,2661 6452,2662 6456,2663 6459,2664 6463,2664 6467,2665 6471,2665 6475,2665 6479,2665 6482,2665 6486,2664 6490,2664 6494,2663 6497,2662 6501,2661 6505,2660 6508,2658 6512,2657 6515,2655 6519,2653 6522,2651 6525,2649 6528,2647 6531,2644 6534,2642 6537,2639 6540,2636 6542,2633 6545,2631 6547,2627 6549,2624 6551,2621 6553,2618 6554,2614 6556,2611 6557,2607 6559,2603 6560,2600 6561,2596 6561,2592 6562,2588 6562,2585 6563,2581 6563,2577 Z"/>
 <path fill="none" stroke="rgb(192,0,0)" stroke-linejoin="round" d="M 6563,2577 L 6563,2573 6562,2569 6562,2565 6561,2562 6561,2558 6560,2554 6559,2550 6557,2547 6556,2543 6554,2540 6553,2536 6551,2533 6549,2530 6547,2526 6545,2523 6542,2520 6540,2517 6537,2515 6534,2512 6531,2510 6528,2507 6525,2505 6522,2503 6519,2501 6515,2499 6512,2497 6508,2496 6505,2494 6501,2493 6497,2492 6494,2491 6490,2490 6486,2490 6482,2489 6479,2489 6475,2489 6471,2489 6467,2489 6463,2490 6459,2490 6456,2491 6452,2492 6448,2493 6445,2494 6441,2496 6438,2497 6434,2499 6431,2501 6427,2503 6424,2505 6421,2507 6418,2510 6415,2512 6412,2515 6410,2517 6407,2520 6405,2523 6403,2526 6400,2530 6398,2533 6397,2536 6395,2540 6393,2543 6392,2547 6391,2550 6390,2554 6389,2558 6388,2562 6387,2565 6387,2569 6387,2573 6387,2577 6387,2581 6387,2585 6387,2588 6388,2592 6389,2596 6390,2600 6391,2603 6392,2607 6393,2611 6395,2614 6397,2618 6398,2621 6400,2624 6403,2627 6405,2631 6407,2633 6410,2636 6412,2639 6415,2642 6418,2644 6421,2647 6424,2649 6427,2651 6431,2653 6434,2655 6438,2657 6441,2658 6445,2660 6448,2661 6452,2662 6456,2663 6459,2664 6463,2664 6467,2665 6471,2665 6475,2665 6479,2665 6482,2665 6486,2664 6490,2664 6494,2663 6497,2662 6501,2661 6505,2660 6508,2658 6512,2657 6515,2655 6519,2653 6522,2651 6525,2649 6528,2647 6531,2644 6534,2642 6537,2639 6540,2636 6542,2633 6545,2631 6547,2627 6549,2624 6551,2621 6553,2618 6554,2614 6556,2611 6557,2607 6559,2603 6560,2600 6561,2596 6561,2592 6562,2588 6562,2585 6563,2581 6563,2577 Z"/>
 <path fill="none" stroke="rgb(247,150,70)" stroke-width="53" stroke-linejoin="round" d="M 904,5910 L 913,5920 922,5930 931,5940 940,5950 949,5960 958,5969 966,5979 975,5989 984,5998 993,6008 1002,6017 1011,6026 1020,6035 1029,6044 1038,6052 1047,6061 1056,6069 1065,6077 1074,6085 1083,6092 1092,6100 1101,6107 1110,6114 1119,6120 1128,6127 1137,6133 1146,6139 1155,6144 1164,6150 1173,6155 1182,6160 1191,6165 1200,6169 1209,6174 1218,6178 1227,6182 1236,6186 1245,6189 1254,6193 1263,6196 1272,6199 1281,6202 1290,6205 1299,6207 1308,6210 1317,6212 1326,6214 1335,6216 1344,6218 1352,6219 1361,6220 1370,6222 1379,6223 1388,6223 1397,6224 1406,6224 1415,6225 1424,6225 1433,6225 1442,6224 1451,6224 1460,6223 1469,6223 1478,6222 1487,6220 1496,6219 1505,6218 1514,6216 1523,6214 1532,6212 1541,6210 1550,6207 1559,6205 1568,6202 1577,6199 1586,6196 1595,6193 1604,6190 1613,6186 1622,6183 1631,6179 1640,6175 1649,6171 1658,6167 1667,6162 1676,6158 1685,6153 1694,6148 1703,6143 1712,6138 1721,6132 1730,6127 1738,6121 1747,6115 1756,6110 1765,6104 1774,6097 1783,6091 1792,6085 1802,6078 1811,6071 1820,6064 1829,6057 1838,6050 1847,6043 1856,6035 1865,6028 1874,6020 1883,6012 1892,6004 1901,5996 1910,5988 1919,5980 1928,5971 1937,5963 1946,5954 1955,5945 1964,5936 1973,5927 1982,5918 1991,5909 2000,5900 2009,5891 2018,5881 2027,5871 2036,5862 2045,5852 2054,5842 2063,5831 2072,5821 2081,5811 2090,5800 2099,5790 2108,5779 2117,5768 2125,5757 2134,5746 2143,5735 2152,5724 2161,5713 2170,5702 2179,5690 2188,5679 2197,5667 2206,5655 2215,5643 2224,5632 2233,5620 2242,5608 2251,5595 2260,5583 2269,5571 2278,5559 2287,5546 2296,5535 2305,5522 2314,5509 2323,5497 2332,5484 2341,5471 2350,5458 2359,5445 2368,5432 2377,5418 2386,5405 2395,5392 2404,5379 2413,5365 2422,5352 2431,5338 2440,5324 2449,5311 2458,5297 2467,5283 2476,5269 2485,5256 2494,5242 2503,5228 2511,5214 2520,5199 2529,5186 2538,5172 2547,5158 2556,5144 2565,5129 2574,5115 2583,5100 2592,5086 2601,5071 2610,5057 2619,5042 2628,5028 2637,5013 2646,4998 2655,4984 2664,4969 2673,4954 2682,4939 2691,4924 2701,4910 2710,4895 2719,4880 2728,4865 2737,4850 2746,4835 2755,4821 2764,4806 2773,4790 2782,4775 2791,4760 2800,4745 2809,4730 2818,4715 2827,4699 2836,4684 2845,4669 2854,4654 2863,4638 2872,4623 2881,4608 2890,4592 2898,4577 2907,4562 2916,4546 2925,4531 2934,4516 2943,4500 2952,4485 2961,4471 2970,4455 2979,4440 2988,4424 2997,4409 3006,4394 3015,4378 3024,4363 3033,4347 3042,4332 3051,4317 3060,4301 3069,4286 3078,4270 3087,4255 3096,4240 3105,4224 3114,4209 3123,4193 3132,4178 3141,4163 3150,4147 3159,4132 3168,4117 3177,4102 3186,4087 3195,4072 3204,4057 3213,4041 3222,4026 3231,4011 3240,3996 3249,3980 3258,3965 3267,3950 3276,3935 3284,3920 3293,3905 3302,3890 3311,3875 3320,3859 3329,3844 3338,3829 3347,3814 3356,3799 3365,3784 3374,3770 3383,3756 3392,3741 3401,3726 3410,3711 3419,3696 3428,3682 3437,3667 3446,3652 3455,3637 3464,3623 3473,3608 3482,3593 3491,3579 3500,3564 3509,3550 3518,3535 3527,3521 3536,3506 3545,3492 3554,3478 3563,3463 3572,3449 3581,3435 3590,3420 3600,3406 3609,3393 3618,3379 3627,3365 3636,3351 3645,3337 3654,3323 3663,3309 3671,3295 3680,3281 3689,3267 3698,3253 3707,3239 3716,3226 3725,3212 3734,3198 3743,3185 3752,3171 3761,3158 3770,3144 3779,3131 3788,3117 3797,3104 3806,3091 3815,3077 3824,3064 3833,3051 3842,3039 3851,3025 3860,3012 3869,2999 3878,2986 3887,2973 3896,2960 3905,2947 3914,2935 3923,2922 3932,2909 3941,2896 3950,2884 3959,2871 3968,2859 3977,2846 3986,2834 3995,2821 4004,2809 4013,2796 4022,2784 4031,2772 4040,2760 4049,2747 4057,2735 4066,2723 4075,2711 4084,2699 4093,2687 4102,2676 4111,2665 4120,2653 4129,2641 4138,2629 4147,2618 4156,2606 4165,2594 4174,2583 4183,2571 4192,2560 4201,2549 4210,2537 4219,2526 4228,2515 4237,2504 4246,2493 4255,2482 4264,2471 4273,2460 4282,2449 4291,2438 4300,2427 4309,2416 4318,2405 4327,2395 4336,2384 4345,2373 4354,2363 4363,2352 4372,2342 4381,2332 4390,2322 4399,2312 4408,2302 4417,2292 4426,2281 4435,2271 4443,2261 4452,2251 4461,2241 4470,2232 4479,2222 4488,2212 4498,2202 4507,2192 4516,2183 4525,2173 4534,2164 4543,2154 4552,2145 4561,2135 4570,2126 4579,2117 4588,2108 4597,2098 4606,2089 4615,2080 4624,2071 4633,2062 4642,2053 4651,2044 4660,2035 4669,2027 4678,2018 4687,2009 4696,2001 4705,1992 4714,1983 4723,1975 4732,1967 4741,1959 4750,1951 4759,1942 4768,1934 4777,1926 4786,1918 4795,1910 4804,1902 4813,1894 4822,1886 4830,1878 4839,1870 4848,1862 4857,1855 4866,1847 4875,1839 4884,1832 4893,1824 4902,1817 4911,1809 4920,1802 4929,1794 4938,1787 4947,1780 4956,1773 4965,1765 4974,1758 4983,1751 4992,1744 5001,1737 5010,1730 5019,1723 5028,1717 5037,1710 5046,1703 5055,1696 5064,1690 5073,1683 5082,1677 5091,1670 5100,1664 5109,1657 5118,1651 5127,1645 5136,1638 5145,1632 5154,1626 5163,1620 5172,1614 5181,1609 5190,1603 5199,1597 5208,1591 5216,1585 5225,1580 5234,1574 5243,1568 5252,1563 5261,1557 5270,1551 5279,1546 5288,1540 5297,1535 5306,1530 5315,1524 5324,1519 5333,1514 5342,1509 5351,1504 5360,1498 5369,1493 5378,1488 5387,1483 5397,1479"/>
 <path fill="none" stroke="rgb(247,150,70)" stroke-width="53" stroke-linejoin="round" d="M 7846,1479 L 7850,1480 7859,1484 7868,1488 7877,1491 7886,1495 7895,1499 7904,1503 7913,1507 7921,1511 7930,1515 7939,1519 7948,1523 7957,1527 7966,1531 7975,1535 7984,1539 7993,1543 8002,1547 8011,1551 8020,1555 8029,1559 8038,1563 8047,1568 8056,1572 8065,1576 8074,1580 8083,1584 8093,1589 8102,1593 8111,1597 8120,1602 8129,1606 8138,1610 8147,1614 8156,1618 8165,1623 8174,1627 8183,1631 8192,1636 8201,1640 8210,1645 8219,1649 8228,1654 8237,1659 8246,1663 8255,1668 8264,1672 8273,1677 8282,1682 8291,1686 8300,1691 8308,1696 8317,1700 8326,1705 8335,1710 8344,1715 8353,1719 8362,1724 8371,1729 8380,1734 8389,1739 8398,1744 8407,1748 8416,1753 8425,1758 8434,1763 8443,1768 8452,1773 8461,1778 8470,1783 8479,1788 8488,1793 8497,1798 8506,1803 8515,1808 8524,1814 8533,1819 8542,1824 8551,1829 8560,1834 8569,1839 8578,1844 8587,1850 8596,1855 8605,1860 8614,1865 8623,1871 8632,1876 8641,1881 8650,1887 8659,1892 8668,1897 8677,1903 8686,1908 8694,1913 8703,1919 8712,1924 8721,1930 8730,1935 8739,1941 8748,1946 8757,1952 8766,1957 8775,1963 8784,1967 8793,1973 8802,1978 8811,1984 8820,1989 8829,1995 8838,2001 8847,2006 8856,2012 8865,2018 8874,2023 8883,2029 8892,2035 8901,2040 8910,2046 8919,2052 8928,2058 8937,2063 8946,2069 8955,2075 8964,2081 8973,2087 8982,2093 8992,2098 9001,2104 9010,2110 9019,2116 9028,2122 9037,2128 9046,2134 9055,2140 9064,2146 9072,2152 9081,2158 9090,2164 9099,2170 9108,2176 9117,2182 9126,2188 9135,2194 9144,2200 9153,2206 9162,2212 9171,2218 9180,2225 9189,2231 9198,2237 9207,2243 9216,2249 9225,2256 9234,2262 9243,2268 9252,2274 9261,2280 9270,2287 9279,2293 9288,2299 9297,2306 9306,2312 9315,2318 9324,2325 9333,2330 9342,2336 9351,2343 9360,2349 9369,2355 9378,2362 9387,2368 9396,2375 9405,2381 9414,2388 9423,2394 9432,2400 9441,2407 9450,2413 9458,2420 9467,2426 9476,2433 9485,2440 9494,2446 9503,2453 9512,2459 9521,2466 9530,2472 9539,2479 9548,2486 9557,2492 9566,2499 9575,2506 9584,2512 9593,2519 9602,2526 9611,2532 9620,2539 9629,2546 9638,2553 9647,2559 9656,2566 9665,2573 9674,2580 9683,2586 9692,2593 9701,2600 9710,2607 9719,2614 9728,2621 9737,2627 9746,2634 9755,2641 9764,2648 9773,2655 9782,2662 9791,2669 9800,2676 9809,2683 9818,2688 9827,2695 9836,2702 9844,2709 9853,2716 9862,2723 9871,2730 9880,2737 9890,2744"/>
 <path fill="none" stroke="rgb(75,172,198)" stroke-width="53" stroke-linejoin="round" d="M 904,5910 L 913,5920 922,5929 931,5939 940,5948 949,5958 958,5967 966,5976 975,5985 984,5994 993,6003 1002,6012 1011,6020 1020,6028 1029,6036 1038,6044 1047,6052 1056,6059 1065,6066 1074,6073 1083,6079 1092,6085 1101,6091 1110,6096 1119,6101 1128,6106 1137,6111 1146,6115 1155,6119 1164,6122 1173,6126 1182,6129 1191,6131 1200,6134 1209,6136 1218,6138 1227,6140 1236,6141 1245,6142 1254,6143 1263,6144 1272,6144 1281,6145 1290,6145 1299,6144 1308,6144 1317,6143 1326,6142 1335,6141 1344,6140 1352,6138 1361,6136 1370,6134 1379,6132 1388,6129 1397,6127 1406,6124 1415,6121 1424,6117 1433,6113 1442,6109 1451,6105 1460,6101 1469,6096 1478,6092 1487,6086 1496,6081 1505,6076 1514,6070 1523,6064 1532,6058 1541,6051 1550,6045 1559,6038 1568,6031 1577,6024 1586,6016 1595,6009 1604,6001 1613,5993 1622,5985 1631,5976 1640,5968 1649,5959 1658,5950 1667,5941 1676,5931 1685,5922 1694,5912 1703,5902 1712,5893 1721,5883 1730,5872 1738,5862 1747,5851 1756,5840 1765,5828 1774,5817 1783,5806 1792,5794 1802,5782 1811,5770 1820,5758 1829,5745 1838,5733 1847,5720 1856,5707 1865,5694 1874,5681 1883,5668 1892,5654 1901,5641 1910,5627 1919,5613 1928,5599 1937,5585 1946,5570 1955,5556 1964,5542 1973,5528 1982,5513 1991,5498 2000,5482 2009,5467 2018,5452 2027,5436 2036,5421 2045,5405 2054,5389 2063,5373 2072,5357 2081,5340 2090,5324 2099,5308 2108,5291 2117,5274 2125,5258 2134,5241 2143,5224 2152,5206 2161,5189 2170,5173 2179,5156 2188,5138 2197,5120 2206,5103 2215,5085 2224,5067 2233,5049 2242,5031 2251,5013 2260,4995 2269,4976 2278,4958 2287,4940 2296,4921 2305,4902 2314,4884 2323,4865 2332,4846 2341,4828 2350,4809 2359,4790 2368,4771 2377,4752 2386,4733 2395,4714 2404,4694 2413,4675 2422,4656 2431,4636 2440,4617 2449,4597 2458,4577 2467,4558 2476,4538 2485,4518 2494,4498 2503,4478 2511,4460 2520,4440 2529,4420 2538,4400 2547,4380 2556,4360 2565,4339 2574,4319 2583,4299 2592,4279 2601,4259 2610,4238 2619,4218 2628,4198 2637,4178 2646,4157 2655,4137 2664,4116 2673,4097 2682,4077 2691,4056 2701,4036 2710,4015 2719,3995 2728,3974 2737,3954 2746,3933 2755,3913 2764,3892 2773,3872 2782,3851 2791,3831 2800,3810 2809,3790 2818,3769 2827,3750 2836,3729 2845,3709 2854,3688 2863,3668 2872,3647 2881,3627 2890,3606 2898,3586 2907,3565 2916,3545 2925,3525 2934,3504 2943,3484 2952,3463 2961,3443 2970,3423 2979,3402 2988,3383 2997,3363 3006,3343 3015,3322 3024,3302 3033,3282 3042,3262 3051,3242 3060,3222 3069,3201 3078,3181 3087,3161 3096,3141 3105,3121 3114,3101 3123,3082 3132,3062 3141,3042 3150,3023 3159,3003 3168,2984 3177,2964 3186,2944 3195,2925 3204,2905 3213,2885 3222,2866 3231,2846 3240,2827 3249,2808 3258,2788 3267,2769 3276,2750 3284,2730 3293,2711 3302,2692 3311,2674 3320,2655 3329,2636 3338,2617 3347,2598 3356,2579 3365,2560 3374,2542 3383,2523 3392,2504 3401,2486 3410,2467 3419,2448 3428,2430 3437,2412 3446,2393 3455,2375 3464,2357 3473,2338 3482,2321 3491,2303 3500,2285 3509,2267 3518,2249 3527,2231 3536,2213 3545,2196 3554,2178 3563,2160 3572,2143 3581,2125 3590,2108 3600,2090 3609,2073 3618,2055 3627,2038 3636,2021 3645,2004 3654,1987 3663,1970 3671,1954 3680,1937 3689,1920 3698,1903 3707,1887 3716,1870 3725,1853 3734,1837 3743,1820 3752,1804 3761,1788 3770,1771 3779,1755 3788,1739 3797,1723 3806,1707 3815,1691 3824,1675 3833,1659 3842,1643 3851,1628 3860,1612 3869,1597 3878,1582 3887,1566 3896,1551 3905,1536 3914,1520 3923,1505 3932,1490 3939,1479"/>
 <path fill="none" stroke="rgb(128,100,162)" stroke-width="53" stroke-linejoin="round" d="M 904,5910 L 913,5919 922,5928 931,5937 940,5946 949,5954 958,5963 966,5971 975,5980 984,5988 993,5995 1002,6003 1011,6010 1020,6018 1029,6024 1038,6031 1047,6037 1056,6043 1065,6048 1074,6053 1083,6057 1092,6061 1101,6065 1110,6068 1119,6070 1128,6072 1137,6074 1146,6075 1155,6076 1164,6077 1173,6077 1182,6077 1191,6076 1200,6075 1209,6073 1218,6071 1227,6069 1236,6067 1245,6064 1254,6061 1263,6057 1272,6053 1281,6049 1290,6045 1299,6040 1308,6035 1317,6029 1326,6024 1335,6018 1344,6011 1352,6005 1361,5998 1370,5990 1379,5983 1388,5975 1397,5966 1406,5958 1415,5949 1424,5940 1433,5930 1442,5920 1451,5910 1460,5901 1469,5890 1478,5879 1487,5868 1496,5856 1505,5844 1514,5832 1523,5820 1532,5807 1541,5794 1550,5780 1559,5767 1568,5753 1577,5739 1586,5724 1595,5710 1604,5695 1613,5679 1622,5664 1631,5648 1640,5632 1649,5616 1658,5599 1667,5583 1676,5566 1685,5549 1694,5532 1703,5515 1712,5497 1721,5479 1730,5460 1738,5442 1747,5423 1756,5404 1765,5385 1774,5365 1783,5346 1792,5326 1802,5306 1811,5286 1820,5265 1829,5245 1838,5224 1847,5203 1856,5183 1865,5162 1874,5140 1883,5118 1892,5097 1901,5074 1910,5052 1919,5030 1928,5007 1937,4985 1946,4962 1955,4939 1964,4916 1973,4892 1982,4869 1991,4845 2000,4822 2009,4799 2018,4775 2027,4750 2036,4726 2045,4702 2054,4677 2063,4653 2072,4628 2081,4603 2090,4578 2099,4553 2108,4528 2117,4502 2125,4477 2134,4452 2143,4427 2152,4401 2161,4375 2170,4349 2179,4323 2188,4297 2197,4271 2206,4245 2215,4218 2224,4192 2233,4166 2242,4139 2251,4113 2260,4087 2269,4060 2278,4033 2287,4006 2296,3979 2305,3952 2314,3925 2323,3898 2332,3871 2341,3844 2350,3817 2359,3789 2368,3762 2377,3736 2386,3708 2395,3681 2404,3653 2413,3626 2422,3598 2431,3571 2440,3543 2449,3516 2458,3488 2467,3461 2476,3433 2485,3405 2494,3379 2503,3351 2511,3323 2520,3296 2529,3268 2538,3240 2547,3213 2556,3185 2565,3157 2574,3130 2583,3102 2592,3074 2601,3047 2610,3020 2619,2992 2628,2965 2637,2937 2646,2909 2655,2882 2664,2854 2673,2827 2682,2799 2691,2772 2701,2744 2710,2717 2719,2690 2728,2663 2737,2636 2746,2609 2755,2581 2764,2554 2773,2527 2782,2500 2791,2473 2800,2446 2809,2419 2818,2392 2827,2365 2836,2338 2845,2312 2854,2285 2863,2258 2872,2232 2881,2205 2890,2178 2898,2152 2907,2125 2916,2099 2925,2072 2934,2046 2943,2020 2952,1994 2961,1967 2970,1942 2979,1916 2988,1890 2997,1865 3006,1839 3015,1813 3024,1787 3033,1762 3042,1736 3051,1710 3060,1685 3069,1660 3078,1634 3087,1610 3096,1585 3105,1560 3114,1535 3123,1510 3132,1485 3134,1479"/>
 <path fill="none" stroke="rgb(155,187,89)" stroke-width="53" stroke-linejoin="round" d="M 904,5910 L 913,5918 922,5925 931,5933 940,5940 949,5948 958,5955 966,5961 975,5968 984,5974 993,5980 1002,5986 1011,5991 1020,5996 1029,6000 1038,6004 1047,6007 1056,6009 1065,6011 1074,6013 1083,6013 1092,6013 1101,6012 1110,6010 1119,6008 1128,6005 1137,6001 1146,5997 1155,5992 1164,5986 1173,5980 1182,5973 1191,5966 1200,5958 1209,5949 1218,5940 1227,5930 1236,5920 1245,5909 1254,5899 1263,5887 1272,5875 1281,5862 1290,5849 1299,5835 1308,5821 1317,5806 1326,5791 1335,5776 1344,5759 1352,5743 1361,5726 1370,5709 1379,5691 1388,5672 1397,5654 1406,5634 1415,5615 1424,5595 1433,5574 1442,5553 1451,5533 1460,5511 1469,5489 1478,5466 1487,5443 1496,5419 1505,5395 1514,5371 1523,5346 1532,5321 1541,5295 1550,5269 1559,5243 1568,5216 1577,5189 1586,5163 1595,5135 1604,5107 1613,5079 1622,5050 1631,5021 1640,4992 1649,4962 1658,4932 1667,4902 1676,4871 1685,4841 1694,4810 1703,4779 1712,4747 1721,4715 1730,4683 1738,4651 1747,4618 1756,4585 1765,4552 1774,4518 1783,4485 1792,4452 1802,4418 1811,4383 1820,4349 1829,4314 1838,4279 1847,4244 1856,4208 1865,4173 1874,4137 1883,4102 1892,4066 1901,4030 1910,3993 1919,3957 1928,3920 1937,3883 1946,3846 1955,3809 1964,3772 1973,3735 1982,3698 1991,3660 2000,3622 2009,3585 2018,3547 2027,3508 2036,3470 2045,3432 2054,3395 2063,3356 2072,3318 2081,3279 2090,3241 2099,3202 2108,3163 2117,3124 2125,3085 2134,3047 2143,3009 2152,2970 2161,2931 2170,2891 2179,2852 2188,2813 2197,2774 2206,2735 2215,2696 2224,2658 2233,2618 2242,2579 2251,2540 2260,2501 2269,2462 2278,2422 2287,2383 2296,2344 2305,2306 2314,2267 2323,2228 2332,2189 2341,2150 2350,2111 2359,2072 2368,2033 2377,1994 2386,1956 2395,1917 2404,1879 2413,1840 2422,1801 2431,1763 2440,1724 2449,1686 2458,1647 2467,1610 2476,1572 2485,1534 2494,1496 2498,1479"/>
 <path fill="none" stroke="rgb(192,80,77)" stroke-width="53" stroke-linejoin="round" d="M 904,5910 L 913,5914 922,5917 931,5921 940,5924 949,5927 958,5930 966,5932 975,5933 984,5934 993,5934 1002,5934 1011,5933 1020,5930 1029,5927 1038,5923 1047,5917 1056,5910 1065,5902 1074,5894 1083,5883 1092,5871 1101,5857 1110,5841 1119,5825 1128,5806 1137,5787 1146,5766 1155,5744 1164,5720 1173,5696 1182,5670 1191,5643 1200,5615 1209,5585 1218,5555 1227,5525 1236,5492 1245,5459 1254,5425 1263,5390 1272,5354 1281,5317 1290,5279 1299,5241 1308,5201 1317,5162 1326,5121 1335,5080 1344,5037 1352,4994 1361,4950 1370,4905 1379,4860 1388,4815 1397,4768 1406,4720 1415,4672 1424,4623 1433,4573 1442,4523 1451,4472 1460,4421 1469,4369 1478,4316 1487,4263 1496,4209 1505,4154 1514,4100 1523,4045 1532,3989 1541,3932 1550,3875 1559,3818 1568,3760 1577,3703 1586,3644 1595,3585 1604,3525 1613,3466 1622,3405 1631,3346 1640,3285 1649,3224 1658,3163 1667,3102 1676,3040 1685,2979 1694,2917 1703,2854 1712,2792 1721,2729 1730,2667 1738,2604 1747,2541 1756,2478 1765,2414 1774,2350 1783,2288 1792,2224 1802,2160 1811,2096 1820,2033 1829,1969 1838,1906 1847,1842 1856,1778 1865,1714 1874,1650 1883,1587 1892,1523 1898,1479"/>
 <path fill="none" stroke="rgb(79,129,189)" stroke-width="53" stroke-linejoin="round" d="M 904,5910 L 913,5882 922,5852 931,5822 940,5790 949,5758 958,5723 966,5687 975,5649 984,5608 993,5563 1002,5517 1011,5466 1020,5411 1029,5352 1038,5288 1047,5219 1056,5147 1065,5067 1074,4982 1083,4890 1092,4793 1101,4689 1110,4578 1119,4464 1128,4342 1137,4216 1146,4087 1155,3951 1164,3812 1173,3670 1182,3524 1191,3375 1200,3223 1209,3068 1218,2912 1227,2753 1236,2594 1245,2432 1254,2271 1263,2107 1272,1945 1281,1781 1290,1617 1298,1479"/>
 <text class="TextShape"><tspan class="TextParagraph" font-family="Calibri" font-size="317px" font-weight="400"><tspan class="TextPosition" x="824" y="6300"><tspan fill="rgb(89,89,89)" stroke="none">0</tspan></tspan></tspan></text>
 <text class="TextShape"><tspan class="TextParagraph" font-family="Calibri" font-size="317px" font-weight="400"><tspan class="TextPosition" x="1723" y="6300"><tspan fill="rgb(89,89,89)" stroke="none">5</tspan></tspan></tspan></text>
 <text class="TextShape"><tspan class="TextParagraph" font-family="Calibri" font-size="317px" font-weight="400"><tspan class="TextPosition" x="2543" y="6300"><tspan fill="rgb(89,89,89)" stroke="none">10</tspan></tspan></tspan></text>
 <text class="TextShape"><tspan class="TextParagraph" font-family="Calibri" font-size="317px" font-weight="400"><tspan class="TextPosition" x="3442" y="6300"><tspan fill="rgb(89,89,89)" stroke="none">15</tspan></tspan></tspan></text>
 <text class="TextShape"><tspan class="TextParagraph" font-family="Calibri" font-size="317px" font-weight="400"><tspan class="TextPosition" x="4340" y="6300"><tspan fill="rgb(89,89,89)" stroke="none">20</tspan></tspan></tspan></text>
 <text class="TextShape"><tspan class="TextParagraph" font-family="Calibri" font-size="317px" font-weight="400"><tspan class="TextPosition" x="5239" y="6300"><tspan fill="rgb(89,89,89)" stroke="none">25</tspan></tspan></tspan></text>
 <text class="TextShape"><tspan class="TextParagraph" font-family="Calibri" font-size="317px" font-weight="400"><tspan class="TextPosition" x="6138" y="6300"><tspan fill="rgb(89,89,89)" stroke="none">30</tspan></tspan></tspan></text>
 <text class="TextShape"><tspan class="TextParagraph" font-family="Calibri" font-size="317px" font-weight="400"><tspan class="TextPosition" x="7036" y="6300"><tspan fill="rgb(89,89,89)" stroke="none">35</tspan></tspan></tspan></text>
 <text class="TextShape"><tspan class="TextParagraph" font-family="Calibri" font-size="317px" font-weight="400"><tspan class="TextPosition" x="7935" y="6300"><tspan fill="rgb(89,89,89)" stroke="none">40</tspan></tspan></tspan></text>
 <text class="TextShape"><tspan class="TextParagraph" font-family="Calibri" font-size="317px" font-weight="400"><tspan class="TextPosition" x="8834" y="6300"><tspan fill="rgb(89,89,89)" stroke="none">45</tspan></tspan></tspan></text>
 <text class="TextShape"><tspan class="TextParagraph" font-family="Calibri" font-size="317px" font-weight="400"><tspan class="TextPosition" x="9732" y="6300"><tspan fill="rgb(89,89,89)" stroke="none">50</tspan></tspan></tspan></text>
 <text class="TextShape"><tspan class="TextParagraph" font-family="Calibri" font-size="317px" font-weight="400"><tspan class="TextPosition" x="382" y="8233"><tspan fill="rgb(89,89,89)" stroke="none">-10</tspan></tspan></tspan></text>
 <text class="TextShape"><tspan class="TextParagraph" font-family="Calibri" font-size="317px" font-weight="400"><tspan class="TextPosition" x="540" y="7125"><tspan fill="rgb(89,89,89)" stroke="none">-5</tspan></tspan></tspan></text>
 <text class="TextShape"><tspan class="TextParagraph" font-family="Calibri" font-size="317px" font-weight="400"><tspan class="TextPosition" x="645" y="6017"><tspan fill="rgb(89,89,89)" stroke="none">0</tspan></tspan></tspan></text>
 <text class="TextShape"><tspan class="TextParagraph" font-family="Calibri" font-size="317px" font-weight="400"><tspan class="TextPosition" x="645" y="4909"><tspan fill="rgb(89,89,89)" stroke="none">5</tspan></tspan></tspan></text>
 <text class="TextShape"><tspan class="TextParagraph" font-family="Calibri" font-size="317px" font-weight="400"><tspan class="TextPosition" x="487" y="3801"><tspan fill="rgb(89,89,89)" stroke="none">10</tspan></tspan></tspan></text>
 <text class="TextShape"><tspan class="TextParagraph" font-family="Calibri" font-size="317px" font-weight="400"><tspan class="TextPosition" x="487" y="2693"><tspan fill="rgb(89,89,89)" stroke="none">15</tspan></tspan></tspan></text>
 <text class="TextShape"><tspan class="TextParagraph" font-family="Calibri" font-size="317px" font-weight="400"><tspan class="TextPosition" x="487" y="1585"><tspan fill="rgb(89,89,89)" stroke="none">20</tspan></tspan></tspan></text>
 <text class="TextShape"><tspan class="TextParagraph" font-family="Calibri" font-size="493px" font-weight="400"><tspan class="TextPosition" x="2757" y="964"><tspan fill="rgb(89,89,89)" stroke="none">s = 60, q = 100, g = 1000</tspan></tspan></tspan></text>
 <path fill="none" stroke="rgb(79,129,189)" stroke-width="53" stroke-linejoin="round" d="M 1546,8626 L 2344,8626"/>
 <path fill="none" stroke="rgb(192,80,77)" stroke-width="53" stroke-linejoin="round" d="M 3420,8626 L 4218,8626"/>
 <path fill="none" stroke="rgb(155,187,89)" stroke-width="53" stroke-linejoin="round" d="M 5294,8626 L 6092,8626"/>
 <path fill="none" stroke="rgb(128,100,162)" stroke-width="53" stroke-linejoin="round" d="M 7168,8626 L 7966,8626"/>
 <path fill="none" stroke="rgb(75,172,198)" stroke-width="53" stroke-linejoin="round" d="M 1546,9109 L 2344,9109"/>
 <path fill="none" stroke="rgb(247,150,70)" stroke-width="53" stroke-linejoin="round" d="M 3420,9109 L 4218,9109"/>
 <path fill="none" stroke="rgb(44,77,117)" stroke-width="53" stroke-linejoin="round" d="M 5294,9109 L 6092,9109"/>
 <path fill="none" stroke="rgb(119,44,42)" stroke-width="53" stroke-linejoin="round" d="M 7168,9109 L 7966,9109"/>
 <text class="TextShape"><tspan class="TextParagraph" font-family="Calibri" font-size="317px" font-weight="400"><tspan class="TextPosition" x="2444" y="8732"><tspan fill="rgb(89,89,89)" stroke="none">R&apos;1-c</tspan></tspan></tspan></text>
 <text class="TextShape"><tspan class="TextParagraph" font-family="Calibri" font-size="317px" font-weight="400"><tspan class="TextPosition" x="4318" y="8732"><tspan fill="rgb(89,89,89)" stroke="none">R&apos;2-c</tspan></tspan></tspan></text>
 <text class="TextShape"><tspan class="TextParagraph" font-family="Calibri" font-size="317px" font-weight="400"><tspan class="TextPosition" x="6192" y="8732"><tspan fill="rgb(89,89,89)" stroke="none">R&apos;3-c</tspan></tspan></tspan></text>
 <text class="TextShape"><tspan class="TextParagraph" font-family="Calibri" font-size="317px" font-weight="400"><tspan class="TextPosition" x="8066" y="8732"><tspan fill="rgb(89,89,89)" stroke="none">R&apos;4-c</tspan></tspan></tspan></text>
 <text class="TextShape"><tspan class="TextParagraph" font-family="Calibri" font-size="317px" font-weight="400"><tspan class="TextPosition" x="2444" y="9214"><tspan fill="rgb(89,89,89)" stroke="none">R&apos;5-c</tspan></tspan></tspan></text>
 <text class="TextShape"><tspan class="TextParagraph" font-family="Calibri" font-size="317px" font-weight="400"><tspan class="TextPosition" x="4318" y="9214"><tspan fill="rgb(89,89,89)" stroke="none">R&apos;6-c</tspan></tspan></tspan></text>
 <text class="TextShape"><tspan class="TextParagraph" font-family="Calibri" font-size="317px" font-weight="400"><tspan class="TextPosition" x="6192" y="9214"><tspan fill="rgb(89,89,89)" stroke="none">R&apos;7-c</tspan></tspan></tspan></text>
 <text class="TextShape"><tspan class="TextParagraph" font-family="Calibri" font-size="317px" font-weight="400"><tspan class="TextPosition" x="8066" y="9214"><tspan fill="rgb(89,89,89)" stroke="none">R&apos;8-c</tspan></tspan></tspan></text>
 <text class="TextShape"><tspan class="TextParagraph" font-family="Calibri" font-size="493px" font-weight="400"><tspan class="TextPosition" x="10086" y="6142"><tspan fill="rgb(89,89,89)" stroke="none">c</tspan></tspan></tspan></text>
</svg>