<?xml version="1.0" encoding="UTF-8"?>
<!DOCTYPE svg PUBLIC "-//W3C//DTD SVG 1.1//EN" "http://www.w3.org/Graphics/SVG/1.1/DTD/svg11.dtd">
<svg width="161mm" height="103mm" viewBox="0 0 16100 10300" version="1.1" xmlns="http://www.w3.org/2000/svg" stroke-width="28.222" stroke-linejoin="round" xml:space="preserve">
 <path fill="none" stroke="rgb(217,217,217)" stroke-width="26" stroke-linejoin="round" d="M 7926,10305 L 13,10305 13,13 15839,13 15839,10305 7926,10305 Z"/>
 <path fill="none" stroke="rgb(217,217,217)" stroke-width="26" stroke-linejoin="round" d="M 924,964 L 924,9565"/>
 <path fill="none" stroke="rgb(217,217,217)" stroke-width="26" stroke-linejoin="round" d="M 2521,964 L 2521,9565"/>
 <path fill="none" stroke="rgb(217,217,217)" stroke-width="26" stroke-linejoin="round" d="M 4120,964 L 4120,9565"/>
 <path fill="none" stroke="rgb(217,217,217)" stroke-width="26" stroke-linejoin="round" d="M 5718,964 L 5718,9565"/>
 <path fill="none" stroke="rgb(217,217,217)" stroke-width="26" stroke-linejoin="round" d="M 7317,964 L 7317,9565"/>
 <path fill="none" stroke="rgb(217,217,217)" stroke-width="26" stroke-linejoin="round" d="M 8914,964 L 8914,9565"/>
 <path fill="none" stroke="rgb(217,217,217)" stroke-width="26" stroke-linejoin="round" d="M 10512,964 L 10512,9565"/>
 <path fill="none" stroke="rgb(217,217,217)" stroke-width="26" stroke-linejoin="round" d="M 12111,964 L 12111,9565"/>
 <path fill="none" stroke="rgb(217,217,217)" stroke-width="26" stroke-linejoin="round" d="M 13709,964 L 13709,9565"/>
 <path fill="none" stroke="rgb(217,217,217)" stroke-width="26" stroke-linejoin="round" d="M 15308,964 L 15308,9565"/>
 <path fill="none" stroke="rgb(217,217,217)" stroke-width="26" stroke-linejoin="round" d="M 15308,9565 L 924,9565"/>
 <path fill="none" stroke="rgb(217,217,217)" stroke-width="26" stroke-linejoin="round" d="M 15308,8704 L 924,8704"/>
 <path fill="none" stroke="rgb(217,217,217)" stroke-width="26" stroke-linejoin="round" d="M 15308,7844 L 924,7844"/>
 <path fill="none" stroke="rgb(217,217,217)" stroke-width="26" stroke-linejoin="round" d="M 15308,6985 L 924,6985"/>
 <path fill="none" stroke="rgb(217,217,217)" stroke-width="26" stroke-linejoin="round" d="M 15308,6125 L 924,6125"/>
 <path fill="none" stroke="rgb(217,217,217)" stroke-width="26" stroke-linejoin="round" d="M 15308,5264 L 924,5264"/>
 <path fill="none" stroke="rgb(217,217,217)" stroke-width="26" stroke-linejoin="round" d="M 15308,4404 L 924,4404"/>
 <path fill="none" stroke="rgb(217,217,217)" stroke-width="26" stroke-linejoin="round" d="M 15308,3545 L 924,3545"/>
 <path fill="none" stroke="rgb(217,217,217)" stroke-width="26" stroke-linejoin="round" d="M 15308,2685 L 924,2685"/>
 <path fill="none" stroke="rgb(217,217,217)" stroke-width="26" stroke-linejoin="round" d="M 15308,1825 L 924,1825"/>
 <path fill="none" stroke="rgb(217,217,217)" stroke-width="26" stroke-linejoin="round" d="M 15308,964 L 924,964"/>
 <path fill="none" stroke="rgb(0,0,0)" stroke-width="26" stroke-linejoin="round" d="M 924,8704 L 15308,8704"/>
 <path fill="none" stroke="rgb(0,0,0)" stroke-width="26" stroke-linejoin="round" d="M 924,9565 L 924,964"/>
 <path fill="none" stroke="rgb(155,187,89)" stroke-width="52" stroke-linejoin="round" d="M 5399,2063 L 5438,2087 5477,2111 5516,2135 5555,2159 5592,2183 5631,2207 5667,2230 5704,2253 5739,2275 5773,2297 5807,2318 5839,2338 5870,2358 5899,2377 5927,2395 5952,2411 5977,2427 5999,2442 6019,2456 6038,2468 6053,2480 6068,2489 6081,2498 6092,2506 6103,2514 6112,2521 6122,2528 6131,2534 6141,2541 6152,2548 6163,2555 6175,2562 6189,2570 6205,2578 6224,2588 6244,2599 6267,2610 6293,2623 6324,2638 6357,2654 6395,2672 6436,2692 6481,2713 6528,2735 6577,2759 6630,2783 6683,2808 6737,2833 6792,2859 6847,2884 6901,2910 6956,2936 7009,2962 7060,2987 7110,3011 7157,3034 7203,3056 7244,3077 7282,3096 7317,3114 7346,3130 7372,3144 7393,3157 7413,3169 7429,3179 7442,3189 7454,3198 7465,3206 7475,3215 7484,3223 7493,3231 7501,3239 7511,3248 7522,3257 7535,3267 7550,3279 7566,3291 7586,3305 7610,3321 7636,3339 7667,3358 7701,3380 7739,3403 7781,3427 7825,3453 7871,3480 7919,3508 7970,3536 8021,3566 8075,3596 8129,3626 8183,3655 8238,3685 8292,3715 8346,3745 8399,3774 8450,3802 8500,3829 8548,3856 8595,3881 8639,3905 8680,3927 8719,3948 8756,3969 8792,3989 8826,4008 8858,4026 8889,4045 8919,4064 8948,4084 8977,4103 9005,4124 9033,4145 9061,4167 9088,4191 9117,4216 9145,4242 9174,4270 9203,4300 9235,4333 9266,4367 9298,4403 9333,4441 9367,4481 9402,4521 9437,4563 9472,4606 9508,4648 9543,4691 9578,4734 9612,4776 9646,4816 9679,4856 9711,4895 9742,4932 9771,4967 9800,5000 9826,5031 9851,5059 9874,5083 9894,5105 9913,5123 9930,5139 9945,5153 9960,5164 9974,5174 9987,5184 9998,5193 10011,5202 10023,5212 10035,5222 10047,5233 10061,5245 10075,5260 10091,5277 10107,5296 10126,5319 10146,5345 10168,5375 10193,5409 10221,5448 10249,5491 10280,5538 10314,5588 10347,5641 10383,5698 10419,5756 10456,5816 10493,5877 10530,5939 10567,6001 10602,6064 10637,6126 10671,6188 10703,6248 10734,6306 10762,6362 10789,6416 10811,6468 10832,6515 10850,6559 10864,6600 10875,6637 10884,6671 10891,6701 10895,6730 10897,6756 10898,6780 10897,6802 10894,6822 10890,6841 10885,6859 10879,6876 10872,6892 10866,6907 10858,6922 10852,6937 10845,6953 10838,6968 10832,6985 10827,7002 10822,7020 10818,7039 10815,7058 10813,7077 10811,7098 10809,7119 10809,7140 10808,7162 10809,7184 10809,7207 10811,7230 10812,7252 10814,7275 10817,7298 10819,7321 10822,7344 10825,7367 10829,7389 10832,7411 10836,7433 10840,7453 10844,7475 10848,7495 10851,7516 10855,7536 10858,7556 10859,7576 10862,7596 10863,7615 10864,7634 10864,7653 10864,7672 10863,7691 10860,7709 10858,7728 10853,7746 10848,7764 10841,7782 10832,7800 10823,7819 10812,7836 10800,7854 10787,7872 10772,7890 10757,7907 10742,7925 10725,7943 10708,7961 10690,7979 10673,7997 10654,8014 10636,8032 10618,8050 10599,8067 10581,8085 10564,8103 10546,8120 10529,8138 10512,8155 10497,8173 10482,8190 10467,8208 10453,8224 10439,8241 10425,8258 10411,8275 10397,8292 10384,8309 10370,8325 10355,8342 10340,8358 10325,8374 10309,8389 10292,8405 10275,8420 10256,8434 10236,8449 10216,8463 10193,8477 10169,8490 10145,8503 10118,8515 10092,8528 10063,8540 10034,8551 10003,8563 9973,8574 9940,8585 9908,8596 9874,8605 9840,8616 9806,8626 9770,8636 9735,8646 9700,8656 9663,8666 9627,8675 9590,8685 9554,8695"/>
 <path fill="none" stroke="rgb(255,192,0)" stroke-width="52" stroke-linejoin="round" d="M 6038,2324 L 6050,2329 6061,2333 6073,2337 6086,2342 6098,2347 6110,2352 6124,2357 6138,2362 6152,2368 6167,2374 6181,2381 6197,2388 6214,2396 6231,2405 6250,2414 6270,2423 6289,2434 6311,2445 6334,2457 6357,2470 6383,2483 6408,2497 6436,2512 6464,2528 6493,2545 6523,2562 6554,2580 6586,2598 6618,2617 6651,2636 6685,2655 6718,2675 6752,2695 6787,2714 6822,2734 6857,2753 6892,2773 6927,2792 6962,2811 6996,2830 7032,2849 7066,2866 7099,2883 7134,2901 7167,2918 7201,2935 7234,2952 7267,2968 7299,2985 7331,3001 7363,3018 7395,3034 7427,3050 7457,3067 7488,3083 7518,3099 7549,3116 7578,3133 7607,3150 7636,3167 7665,3184 7692,3202 7721,3220 7748,3238 7777,3256 7805,3274 7833,3293 7862,3312 7892,3332 7921,3352 7952,3372 7983,3392 8016,3412 8048,3433 8082,3454 8119,3475 8155,3496 8194,3518 8234,3540 8275,3562 8318,3584 8364,3607 8410,3630 8457,3652 8506,3675 8555,3699 8605,3723 8656,3746 8707,3771 8758,3795 8809,3819 8859,3844 8909,3869 8959,3894 9007,3919 9056,3944 9103,3969 9148,3995 9192,4020 9235,4045 9275,4071 9313,4097 9351,4123 9386,4149 9420,4176 9453,4202 9485,4228 9517,4255 9547,4281 9577,4308 9606,4334 9636,4361 9664,4388 9693,4413 9722,4440 9752,4467 9781,4494 9811,4521 9842,4547 9874,4574 9906,4601 9939,4628 9974,4654 10008,4681 10043,4707 10078,4733 10113,4758 10149,4782 10183,4807 10218,4831 10252,4854 10285,4876 10318,4898 10350,4919 10381,4939 10410,4958 10438,4977 10464,4994 10490,5009 10512,5024 10534,5038 10553,5050 10571,5061 10587,5072 10603,5083 10618,5093 10631,5103 10644,5113 10657,5124 10670,5135 10683,5147 10695,5160 10709,5174 10723,5190 10738,5207 10753,5226 10771,5247 10790,5271 10810,5297 10832,5325 10857,5356 10883,5390 10911,5427 10940,5466 10971,5507 11002,5549 11035,5594 11069,5640 11103,5688 11138,5737 11173,5787 11208,5839 11243,5891 11278,5942 11313,5995 11346,6048 11379,6101 11411,6155 11442,6207 11472,6260 11499,6310 11526,6361 11552,6412 11575,6461 11598,6509 11618,6557 11638,6603 11657,6649 11673,6692 11690,6735 11705,6777 11719,6817 11731,6856 11742,6893 11753,6929 11763,6964 11771,6996 11779,7027 11785,7056 11791,7083 11796,7108 11800,7132 11804,7154 11807,7175 11809,7194 11810,7212 11811,7230 11812,7246 11811,7262 11811,7277 11810,7293 11809,7308 11807,7323 11805,7338 11803,7354 11801,7370 11798,7386 11796,7404 11793,7423 11791,7443 11788,7463 11786,7485 11784,7508 11782,7532 11780,7557 11778,7582 11777,7607 11775,7632 11774,7657 11774,7682 11773,7707 11773,7731 11774,7754 11775,7776 11776,7797 11778,7816 11781,7834 11784,7849 11786,7863 11791,7876 11796,7886 11801,7894 11807,7900 11813,7905 11819,7908 11825,7911 11831,7912 11836,7913 11843,7915 11846,7918 11844,7923 11841,7928 11835,7934 11828,7941 11818,7951 11806,7963 11791,7977 11774,7994 11754,8014 11731,8035 11707,8059 11680,8085 11652,8112 11622,8140 11590,8170 11557,8200 11523,8230 11488,8262 11451,8293 11415,8325 11378,8357 11339,8388 11302,8418 11264,8447 11226,8475 11189,8502 11151,8527 11116,8551 11081,8573 11045,8592 11011,8610 10977,8627 10944,8642 10911,8657 10879,8670 10847,8682 10815,8693 10784,8703 10753,8712 10723,8720 10692,8728 10662,8735 10631,8742 10602,8748 10572,8755 10542,8761 10512,8766"/>
 <path fill="none" stroke="rgb(79,129,189)" stroke-width="52" stroke-linejoin="round" d="M 7317,2857 L 7327,2865 7339,2871 7352,2878 7364,2886 7376,2893 7388,2901 7401,2909 7415,2917 7429,2925 7443,2933 7459,2941 7475,2950 7492,2959 7509,2968 7528,2978 7547,2988 7567,2998 7589,3009 7612,3020 7636,3032 7661,3043 7687,3056 7715,3069 7743,3082 7774,3095 7804,3109 7835,3123 7867,3138 7900,3153 7933,3168 7966,3184 8000,3199 8034,3215 8069,3231 8103,3248 8138,3264 8173,3280 8207,3297 8242,3315 8275,3332 8309,3349 8342,3367 8375,3384 8408,3402 8440,3420 8472,3438 8504,3456 8536,3475 8567,3493 8599,3511 8630,3530 8661,3549 8693,3568 8724,3587 8756,3606 8787,3625 8819,3644 8850,3663 8883,3683 8914,3702 8947,3722 8979,3742 9011,3762 9044,3783 9077,3803 9110,3823 9142,3844 9176,3864 9208,3885 9240,3905 9273,3926 9305,3946 9338,3967 9369,3987 9401,4008 9432,4027 9464,4047 9494,4068 9524,4088 9554,4108 9584,4128 9612,4148 9641,4168 9669,4188 9698,4208 9726,4228 9756,4248 9784,4268 9814,4288 9843,4309 9874,4329 9905,4350 9937,4372 9970,4393 10004,4414 10040,4436 10076,4458 10113,4481 10153,4505 10193,4529 10235,4553 10279,4578 10325,4603 10371,4629 10418,4655 10466,4681 10515,4708 10566,4734 10615,4761 10666,4787 10716,4814 10767,4841 10817,4868 10867,4895 10916,4921 10966,4948 11014,4974 11061,5000 11107,5025 11151,5050 11196,5075 11238,5100 11278,5124 11318,5147 11356,5169 11393,5192 11429,5215 11463,5237 11496,5259 11529,5281 11560,5303 11590,5324 11618,5345 11646,5366 11672,5387 11699,5408 11724,5429 11747,5449 11770,5469 11791,5490 11812,5510 11832,5530 11851,5550 11870,5570 11888,5590 11904,5610 11921,5630 11937,5649 11953,5669 11968,5689 11983,5708 11998,5727 12012,5746 12026,5765 12040,5783 12054,5802 12069,5820 12082,5838 12096,5856 12111,5873 12126,5890 12140,5907 12155,5923 12171,5939 12186,5956 12201,5972 12217,5988 12233,6005 12248,6021 12265,6038 12281,6054 12298,6071 12314,6088 12330,6105 12347,6123 12364,6141 12380,6159 12397,6177 12414,6196 12430,6216 12447,6236 12464,6256 12480,6277 12497,6298 12514,6318 12531,6340 12546,6362 12563,6384 12580,6405 12595,6427 12612,6448 12628,6470 12644,6491 12659,6512 12675,6532 12690,6552 12706,6571 12720,6590 12735,6608 12750,6625 12765,6642 12778,6658 12793,6673 12807,6688 12822,6702 12835,6716 12850,6731 12864,6746 12879,6761 12893,6777 12909,6793 12925,6810 12941,6828 12957,6848 12974,6868 12992,6889 13010,6912 13029,6937 13049,6963 13069,6992 13091,7022 13114,7054 13136,7087 13159,7122 13181,7159 13204,7197 13227,7236 13248,7276 13269,7317 13289,7359 13307,7401 13325,7443 13341,7484 13354,7526 13366,7569 13376,7610 13384,7652 13389,7692 13391,7732 13390,7771 13385,7809 13378,7844 13368,7880 13356,7914 13342,7947 13326,7979 13308,8010 13290,8039 13269,8067 13249,8094 13228,8119 13207,8143 13186,8166 13166,8188 13146,8208 13127,8226 13111,8243 13095,8259 13081,8273 13069,8286 13060,8297 13054,8308 13049,8316 13046,8324 13045,8331 13044,8337 13046,8342 13048,8347 13051,8351 13054,8355 13058,8359 13061,8362 13064,8366 13068,8369 13071,8374 13073,8378 13074,8383 13074,8389 13072,8395 13069,8403 13065,8411 13059,8421 13051,8432 13041,8443 13029,8455 13017,8468 13003,8482 12989,8497 12972,8512 12955,8527 12938,8544 12919,8560 12899,8578 12879,8595 12858,8612 12837,8630 12816,8649 12794,8667 12772,8686 12750,8704"/>
 <text class="TextShape"><tspan class="TextParagraph" font-family="Calibri, sans-serif" font-size="317px" font-weight="400"><tspan class="TextPosition" x="846" y="9094"><tspan fill="rgb(89,89,89)" stroke="none">0</tspan></tspan></tspan></text>
 <text class="TextShape"><tspan class="TextParagraph" font-family="Calibri, sans-serif" font-size="317px" font-weight="400"><tspan class="TextPosition" x="2443" y="9094"><tspan fill="rgb(89,89,89)" stroke="none">5</tspan></tspan></tspan></text>
 <text class="TextShape"><tspan class="TextParagraph" font-family="Calibri, sans-serif" font-size="317px" font-weight="400"><tspan class="TextPosition" x="3964" y="9094"><tspan fill="rgb(89,89,89)" stroke="none">10</tspan></tspan></tspan></text>
 <text class="TextShape"><tspan class="TextParagraph" font-family="Calibri, sans-serif" font-size="317px" font-weight="400"><tspan class="TextPosition" x="5562" y="9094"><tspan fill="rgb(89,89,89)" stroke="none">15</tspan></tspan></tspan></text>
 <text class="TextShape"><tspan class="TextParagraph" font-family="Calibri, sans-serif" font-size="317px" font-weight="400"><tspan class="TextPosition" x="7161" y="9094"><tspan fill="rgb(89,89,89)" stroke="none">20</tspan></tspan></tspan></text>
 <text class="TextShape"><tspan class="TextParagraph" font-family="Calibri, sans-serif" font-size="317px" font-weight="400"><tspan class="TextPosition" x="8758" y="9094"><tspan fill="rgb(89,89,89)" stroke="none">25</tspan></tspan></tspan></text>
 <text class="TextShape"><tspan class="TextParagraph" font-family="Calibri, sans-serif" font-size="317px" font-weight="400"><tspan class="TextPosition" x="10357" y="9094"><tspan fill="rgb(89,89,89)" stroke="none">30</tspan></tspan></tspan></text>
 <text class="TextShape"><tspan class="TextParagraph" font-family="Calibri, sans-serif" font-size="317px" font-weight="400"><tspan class="TextPosition" x="11955" y="9094"><tspan fill="rgb(89,89,89)" stroke="none">35</tspan></tspan></tspan></text>
 <text class="TextShape"><tspan class="TextParagraph" font-family="Calibri, sans-serif" font-size="317px" font-weight="400"><tspan class="TextPosition" x="13553" y="9094"><tspan fill="rgb(89,89,89)" stroke="none">40</tspan></tspan></tspan></text>
 <text class="TextShape"><tspan class="TextParagraph" font-family="Calibri, sans-serif" font-size="317px" font-weight="400"><tspan class="TextPosition" x="15152" y="9094"><tspan fill="rgb(89,89,89)" stroke="none">45</tspan></tspan></tspan></text>
 <text class="TextShape"><tspan class="TextParagraph" font-family="Calibri, sans-serif" font-size="317px" font-weight="400"><tspan class="TextPosition" x="410" y="9671"><tspan fill="rgb(89,89,89)" stroke="none">-10</tspan></tspan></tspan></text>
 <text class="TextShape"><tspan class="TextParagraph" font-family="Calibri, sans-serif" font-size="317px" font-weight="400"><tspan class="TextPosition" x="669" y="8810"><tspan fill="rgb(89,89,89)" stroke="none">0</tspan></tspan></tspan></text>
 <text class="TextShape"><tspan class="TextParagraph" font-family="Calibri, sans-serif" font-size="317px" font-weight="400"><tspan class="TextPosition" x="513" y="7951"><tspan fill="rgb(89,89,89)" stroke="none">10</tspan></tspan></tspan></text>
 <text class="TextShape"><tspan class="TextParagraph" font-family="Calibri, sans-serif" font-size="317px" font-weight="400"><tspan class="TextPosition" x="513" y="7091"><tspan fill="rgb(89,89,89)" stroke="none">20</tspan></tspan></tspan></text>
 <text class="TextShape"><tspan class="TextParagraph" font-family="Calibri, sans-serif" font-size="317px" font-weight="400"><tspan class="TextPosition" x="513" y="6231"><tspan fill="rgb(89,89,89)" stroke="none">30</tspan></tspan></tspan></text>
 <text class="TextShape"><tspan class="TextParagraph" font-family="Calibri, sans-serif" font-size="317px" font-weight="400"><tspan class="TextPosition" x="513" y="5371"><tspan fill="rgb(89,89,89)" stroke="none">40</tspan></tspan></tspan></text>
 <text class="TextShape"><tspan class="TextParagraph" font-family="Calibri, sans-serif" font-size="317px" font-weight="400"><tspan class="TextPosition" x="513" y="4511"><tspan fill="rgb(89,89,89)" stroke="none">50</tspan></tspan></tspan></text>
 <text class="TextShape"><tspan class="TextParagraph" font-family="Calibri, sans-serif" font-size="317px" font-weight="400"><tspan class="TextPosition" x="513" y="3651"><tspan fill="rgb(89,89,89)" stroke="none">60</tspan></tspan></tspan></text>
 <text class="TextShape"><tspan class="TextParagraph" font-family="Calibri, sans-serif" font-size="317px" font-weight="400"><tspan class="TextPosition" x="513" y="2791"><tspan fill="rgb(89,89,89)" stroke="none">70</tspan></tspan></tspan></text>
 <text class="TextShape"><tspan class="TextParagraph" font-family="Calibri, sans-serif" font-size="317px" font-weight="400"><tspan class="TextPosition" x="513" y="1931"><tspan fill="rgb(89,89,89)" stroke="none">80</tspan></tspan></tspan></text>
 <text class="TextShape"><tspan class="TextParagraph" font-family="Calibri, sans-serif" font-size="317px" font-weight="400"><tspan class="TextPosition" x="513" y="1072"><tspan fill="rgb(89,89,89)" stroke="none">90</tspan></tspan></tspan></text>
 <text class="TextShape"><tspan class="TextParagraph" font-family="Calibri, sans-serif" font-size="493px" font-weight="400"><tspan class="TextPosition" x="6717" y="977"><tspan fill="rgb(89,89,89)" stroke="none">max (ϬR - c)</tspan></tspan></tspan></text>
 <path fill="none" stroke="rgb(79,129,189)" stroke-width="52" stroke-linejoin="round" d="M 5287,9901 L 6073,9901"/>
 <path fill="none" stroke="rgb(255,192,0)" stroke-width="52" stroke-linejoin="round" d="M 7091,9901 L 7877,9901"/>
 <path fill="none" stroke="rgb(155,187,89)" stroke-width="52" stroke-linejoin="round" d="M 8894,9901 L 9681,9901"/>
 <text class="TextShape"><tspan class="TextParagraph" font-family="Calibri, sans-serif" font-size="317px" font-weight="400"><tspan class="TextPosition" x="6171" y="10007"><tspan fill="rgb(89,89,89)" stroke="none">s = 20</tspan></tspan></tspan></text>
 <text class="TextShape"><tspan class="TextParagraph" font-family="Calibri, sans-serif" font-size="317px" font-weight="400"><tspan class="TextPosition" x="7975" y="10007"><tspan fill="rgb(89,89,89)" stroke="none">s = 40</tspan></tspan></tspan></text>
 <text class="TextShape"><tspan class="TextParagraph" font-family="Calibri, sans-serif" font-size="317px" font-weight="400"><tspan class="TextPosition" x="9779" y="10007"><tspan fill="rgb(89,89,89)" stroke="none">s = 60</tspan></tspan></tspan></text>
 <path fill="none" stroke="rgb(0,0,0)" stroke-width="61" stroke-linejoin="round" d="M 15188,7401 L 7411,7322"/>
 <path fill="none" stroke="rgb(0,0,0)" stroke-width="61" stroke-linejoin="round" d="M 15188,7401 L 15188,7401 Z"/>
 <path fill="none" stroke="rgb(0,0,0)" stroke-width="61" stroke-linejoin="round" d="M 7411,7322 L 7411,7322 Z"/>
 <text class="TextShape"><tspan class="TextParagraph" font-family="Calibri, sans-serif" font-size="387px" font-weight="400"><tspan class="TextPosition" x="8073" y="6998"><tspan font-family="Liberation Serif, serif" font-size="563px" fill="rgb(0,0,0)" stroke="none">s</tspan><tspan fill="rgb(0,0,0)" stroke="none">↑</tspan></tspan></tspan></text>
 <text class="TextShape"><tspan class="TextParagraph" font-family="Liberation Serif, serif" font-size="845px" font-weight="700"><tspan class="TextPosition" x="14030" y="8317"><tspan fill="rgb(192,0,0)" stroke="none">D ↑</tspan></tspan></tspan></text>
</svg>